<svg version="1.1" id="Слой_1" xmlns="http://www.w3.org/2000/svg" x="0" y="0" viewBox="0 0 288 59.9" xml:space="preserve"><style>.st0{fill:#2172ec}</style><switch><g><path class="st0" d="M287.9 3.3V-.1h-3.4c-23.4 0-46.9.1-70.3.3l-35.1.2-35.1.3c-11.7.1-23.4.3-35.1.4l-35.2.6c-23.5.4-46.9.9-70.3 1.6 23.4.7 46.8 1.1 70.3 1.6l35.1.5c11.7.2 23.4.3 35.1.4l35.1.4 35.1.2c22.3.2 44.6.2 66.9.3v46.6c-22.3 0-44.6.1-66.9.2l-35.1.2-35 .5-35.1.4-35.1.5c-23.4.4-46.9.9-70.3 1.6 23.4.7 46.9 1.1 70.3 1.6l35.1.5 35.1.4 35.1.4 35.1.2c23.4.2 46.9.2 70.3.3h3.4v-3.4L288 30l-.1-26.7z"/><path class="st0" d="M4.7 17.4H0v25.2h17.8v-3.9H4.7zM25.9 17.4h4.7v25.2h-4.7zM49.1 22.3c1.4-.7 3-1.1 4.7-1.1 2.7 0 5 1 6.9 2.9l2.9-2.9c-1.2-1.3-2.6-2.4-4.4-3.1-1.7-.7-3.6-1-5.8-1-2.6 0-4.9.6-7 1.7-2.1 1.1-3.7 2.7-4.9 4.6-1.2 2-1.8 4.2-1.8 6.7s.6 4.7 1.8 6.7c1.2 2 2.8 3.5 4.9 4.6 2.1 1.1 4.4 1.7 6.9 1.7 1.8 0 3.6-.3 5.3-.8 1.7-.6 3.2-1.3 4.5-2.4v-10H59v7.8c-1.5.9-3.2 1.3-5.2 1.3-1.8 0-3.3-.4-4.7-1.2s-2.5-1.8-3.2-3.2c-.8-1.3-1.2-2.9-1.2-4.5 0-1.7.4-3.3 1.2-4.6.7-1.4 1.8-2.5 3.2-3.2zM91.6 27.8h-13V17.4h-4.7v25.2h4.7V31.8h13v10.8h4.7V17.4h-4.7zM104.2 21.4h8.3v21.2h4.7V21.4h8.3v-4h-21.3zM147.9 28.6c-1.3-.5-2.8-.9-4.8-1.3-1.7-.4-2.9-.7-3.7-1-.8-.3-1.2-.8-1.2-1.5s.3-1.2 1-1.6c.6-.4 1.7-.6 3.1-.6 2.3 0 4.6.6 7 1.9l2.2-5.3c-1.2-.7-2.6-1.3-4.2-1.6-1.6-.4-3.2-.6-4.9-.6-2.4 0-4.5.4-6.1 1.1-1.7.7-2.9 1.7-3.8 2.9-.8 1.2-1.3 2.6-1.3 4.2 0 1.8.5 3.1 1.4 4.2.9 1 2 1.8 3.3 2.2 1.3.5 2.9.9 4.7 1.3 1.7.4 3 .7 3.8 1.1.8.3 1.2.9 1.2 1.6 0 1.4-1.4 2-4.1 2-1.4 0-2.9-.2-4.4-.7-1.5-.5-2.8-1.1-3.9-1.8l-2.3 5.2c1.2.8 2.8 1.5 4.7 2 1.9.5 3.9.8 5.9.8 2.4 0 4.4-.4 6.1-1.1 1.7-.7 2.9-1.7 3.8-2.9.8-1.2 1.3-2.6 1.3-4.1 0-1.8-.5-3.1-1.4-4.2-1-1-2.1-1.7-3.4-2.2zM157.5 23.1h7.7v19.5h7.1V23.1h7.7v-5.7h-22.5zM193.9 17.4l-11.1 25.2h7.3l2-4.9h10.6l2 4.9h7.4L201 17.4h-7.1zm.2 15.1l3.2-8.1 3.2 8.1h-6.4zM239.9 31.5c.9-1.4 1.3-2.9 1.3-4.8s-.5-3.5-1.4-4.9c-.9-1.4-2.2-2.5-3.9-3.2s-3.7-1.1-5.9-1.1h-11.5v25.2h7.1V36h3.9l4.6 6.7h7.6l-5.4-7.9c1.5-.9 2.7-1.9 3.6-3.3zm-7.1-2c-.7.6-1.8 1-3.3 1h-4v-7.4h4c1.5 0 2.6.3 3.3 1 .7.6 1.1 1.6 1.1 2.7s-.3 2-1.1 2.7zM246.7 17.4v5.7h7.7v19.5h7.2V23.1h7.7v-5.7z"/></g></switch></svg>